<svg data-v-423bf9ae="" xmlns="http://www.w3.org/2000/svg" viewBox="0 0 484 90" class="iconLeft"><!----><!----><!----><g data-v-423bf9ae="" id="0cbb6b22-1c6e-4565-8b11-586726b1e19f" fill="#2e3034" transform="matrix(6.048387050628662,0,0,6.048387050628662,171.66439819335938,-10.34273910522461)"><path d="M3.92 14.11Q2.73 14.11 1.89 13.50Q1.05 12.88 0.74 11.82L0.74 11.82Q0.55 11.16 0.55 10.39L0.55 10.39Q0.55 9.53 0.76 8.90L0.76 8.90Q1.08 7.87 1.91 7.28Q2.74 6.69 3.93 6.69L3.93 6.69Q5.08 6.69 5.90 7.28Q6.72 7.87 7.04 8.89L7.04 8.89Q7.25 9.53 7.25 10.36L7.25 10.36Q7.25 11.09 7.07 11.77L7.07 11.77Q6.75 12.87 5.92 13.49Q5.08 14.11 3.92 14.11L3.92 14.11ZM3.92 12.42Q4.37 12.42 4.69 12.14Q5.01 11.86 5.15 11.37L5.15 11.37Q5.26 10.99 5.26 10.39L5.26 10.39Q5.26 9.80 5.15 9.39L5.15 9.39Q5.01 8.92 4.69 8.65Q4.37 8.39 3.89 8.39L3.89 8.39Q3.43 8.39 3.11 8.65Q2.79 8.92 2.65 9.39L2.65 9.39Q2.53 9.80 2.53 10.39L2.53 10.39Q2.53 10.96 2.65 11.37L2.65 11.37Q2.79 11.86 3.12 12.14Q3.44 12.42 3.92 12.42L3.92 12.42ZM11.40 14.10Q10.46 14.10 9.76 13.83Q9.06 13.57 8.68 13.09Q8.30 12.61 8.30 12.01L8.30 12.01L8.30 11.94Q8.30 11.70 8.54 11.70L8.54 11.70L9.95 11.70Q10.19 11.70 10.19 11.79L10.19 11.79L10.19 11.89Q10.19 12.19 10.53 12.41Q10.86 12.63 11.38 12.63L11.38 12.63Q11.86 12.63 12.15 12.45Q12.45 12.26 12.45 11.97L12.45 11.97Q12.45 11.72 12.19 11.59Q11.94 11.47 11.37 11.33L11.37 11.33Q10.68 11.14 10.35 11.00L10.35 11.00Q9.44 10.70 8.90 10.25Q8.37 9.80 8.37 8.96L8.37 8.96Q8.37 7.92 9.18 7.31Q10.00 6.71 11.31 6.71L11.31 6.71Q12.21 6.71 12.89 6.99Q13.57 7.28 13.94 7.80Q14.31 8.32 14.31 8.97L14.31 8.97Q14.31 9.04 14.25 9.09Q14.18 9.14 14.07 9.14L14.07 9.14L12.70 9.14Q12.46 9.14 12.46 9.06L12.46 9.06L12.46 8.97Q12.46 8.67 12.15 8.46Q11.84 8.25 11.33 8.25L11.33 8.25Q10.86 8.25 10.56 8.41Q10.26 8.58 10.26 8.88L10.26 8.88Q10.26 9.16 10.55 9.30Q10.84 9.44 11.49 9.59L11.49 9.59Q11.90 9.67 12.28 9.80L12.28 9.80Q13.29 10.09 13.86 10.56Q14.43 11.02 14.43 11.90L14.43 11.90Q14.43 12.94 13.61 13.52Q12.78 14.10 11.40 14.10L11.40 14.10ZM19.74 4.19Q20.66 4.19 21.36 4.56Q22.06 4.94 22.45 5.63Q22.83 6.33 22.83 7.22L22.83 7.22Q22.83 8.11 22.43 8.78Q22.04 9.45 21.32 9.82Q20.59 10.19 19.66 10.19L19.66 10.19L17.68 10.19Q17.60 10.19 17.60 10.28L17.60 10.28L17.60 13.76Q17.60 14 17.36 14L17.36 14L15.86 14Q15.62 14 15.62 13.76L15.62 13.76L15.62 4.42Q15.62 4.19 15.86 4.19L15.86 4.19L19.74 4.19ZM19.45 8.61Q20.09 8.61 20.48 8.24Q20.87 7.87 20.87 7.27L20.87 7.27Q20.87 6.65 20.48 6.27Q20.09 5.89 19.45 5.89L19.45 5.89L17.68 5.89Q17.60 5.89 17.60 5.98L17.60 5.98L17.60 8.53Q17.60 8.61 17.68 8.61L17.68 8.61L19.45 8.61ZM26.71 14.11Q25.52 14.11 24.68 13.50Q23.84 12.88 23.53 11.82L23.53 11.82Q23.34 11.16 23.34 10.39L23.34 10.39Q23.34 9.53 23.55 8.90L23.55 8.90Q23.87 7.87 24.70 7.28Q25.54 6.69 26.73 6.69L26.73 6.69Q27.87 6.69 28.69 7.28Q29.51 7.87 29.83 8.89L29.83 8.89Q30.04 9.53 30.04 10.36L30.04 10.36Q30.04 11.09 29.86 11.77L29.86 11.77Q29.54 12.87 28.71 13.49Q27.87 14.11 26.71 14.11L26.71 14.11ZM26.71 12.42Q27.16 12.42 27.48 12.14Q27.80 11.86 27.94 11.37L27.94 11.37Q28.06 10.99 28.06 10.39L28.06 10.39Q28.06 9.80 27.94 9.39L27.94 9.39Q27.80 8.92 27.48 8.65Q27.16 8.39 26.68 8.39L26.68 8.39Q26.22 8.39 25.90 8.65Q25.58 8.92 25.44 9.39L25.44 9.39Q25.33 9.80 25.33 10.39L25.33 10.39Q25.33 10.96 25.44 11.37L25.44 11.37Q25.58 11.86 25.91 12.14Q26.24 12.42 26.71 12.42L26.71 12.42ZM34.90 6.71Q35.35 6.71 35.64 6.87L35.64 6.87Q35.81 6.96 35.77 7.17L35.77 7.17L35.50 8.64Q35.49 8.76 35.43 8.79Q35.36 8.82 35.22 8.79L35.22 8.79Q35 8.74 34.82 8.74L34.82 8.74Q34.72 8.74 34.50 8.76L34.50 8.76Q33.99 8.81 33.64 9.13Q33.29 9.46 33.29 10.01L33.29 10.01L33.29 13.76Q33.29 14 33.05 14L33.05 14L31.56 14Q31.32 14 31.32 13.76L31.32 13.76L31.32 7.04Q31.32 6.80 31.56 6.80L31.56 6.80L33.05 6.80Q33.29 6.80 33.29 7.04L33.29 7.04L33.29 7.48Q33.29 7.53 33.32 7.55Q33.35 7.56 33.39 7.52L33.39 7.52Q33.95 6.71 34.90 6.71L34.90 6.71ZM40.89 8.15Q40.89 8.39 40.66 8.39L40.66 8.39L39.40 8.39Q39.31 8.39 39.31 8.47L39.31 8.47L39.31 11.37Q39.31 11.83 39.50 12.05Q39.69 12.26 40.11 12.26L40.11 12.26L40.50 12.26Q40.74 12.26 40.74 12.50L40.74 12.50L40.74 13.71Q40.74 13.93 40.50 13.96L40.50 13.96Q39.97 13.99 39.73 13.99L39.73 13.99Q38.57 13.99 38.00 13.59Q37.42 13.20 37.41 12.14L37.41 12.14L37.41 8.47Q37.41 8.39 37.32 8.39L37.32 8.39L36.61 8.39Q36.37 8.39 36.37 8.15L36.37 8.15L36.37 7.04Q36.37 6.80 36.61 6.80L36.61 6.80L37.32 6.80Q37.41 6.80 37.41 6.72L37.41 6.72L37.41 5.14Q37.41 4.90 37.65 4.90L37.65 4.90L39.07 4.90Q39.31 4.90 39.31 5.14L39.31 5.14L39.31 6.72Q39.31 6.80 39.40 6.80L39.40 6.80L40.66 6.80Q40.89 6.80 40.89 7.04L40.89 7.04L40.89 8.15ZM44.97 6.69Q45.88 6.69 46.59 7.01Q47.31 7.32 47.71 7.87Q48.10 8.41 48.10 9.09L48.10 9.09L48.10 13.76Q48.10 14 47.87 14L47.87 14L46.37 14Q46.13 14 46.13 13.76L46.13 13.76L46.13 13.43Q46.13 13.37 46.10 13.36Q46.07 13.36 46.03 13.40L46.03 13.40Q45.39 14.11 44.11 14.11L44.11 14.11Q43.04 14.11 42.38 13.58Q41.72 13.05 41.72 12.01L41.72 12.01Q41.72 10.93 42.48 10.34Q43.23 9.74 44.63 9.74L44.63 9.74L46.05 9.74Q46.13 9.74 46.13 9.66L46.13 9.66L46.13 9.37Q46.13 8.90 45.84 8.64Q45.56 8.39 45.01 8.39L45.01 8.39Q44.59 8.39 44.32 8.53Q44.04 8.67 43.95 8.92L43.95 8.92Q43.86 9.11 43.67 9.10L43.67 9.10L42.11 8.90Q42.00 8.89 41.94 8.84Q41.87 8.79 41.89 8.71L41.89 8.71Q41.96 8.13 42.37 7.67Q42.78 7.21 43.46 6.95Q44.14 6.69 44.97 6.69L44.97 6.69ZM44.69 12.64Q45.29 12.64 45.71 12.32Q46.13 12.00 46.13 11.49L46.13 11.49L46.13 11.00Q46.13 10.92 46.05 10.92L46.05 10.92L45.05 10.92Q44.42 10.92 44.06 11.16Q43.69 11.40 43.69 11.83L43.69 11.83Q43.69 12.21 43.97 12.43Q44.24 12.64 44.69 12.64L44.69 12.64ZM49.74 14Q49.50 14 49.50 13.76L49.50 13.76L49.50 4.44Q49.50 4.20 49.74 4.20L49.74 4.20L51.24 4.20Q51.48 4.20 51.48 4.44L51.48 4.44L51.48 13.76Q51.48 14 51.24 14L51.24 14L49.74 14Z"></path></g><!----><g data-v-423bf9ae="" id="4ab47453-e2ba-4ac0-b1a1-eb58319197e1" transform="matrix(1.7249971628189087,0,0,1.7249971628189087,-8.17630386352539,-40.337581634521484)" stroke="none" fill="#eb5009"><path d="M89.919 68.213l-6.457-11.138-9.084-15.139-12.355-5.716-14.45-.26-12.429 2.391-6.026-3.604-6.035-3.45 3-4.392-.016-2.991h-1.532l-3.947 3.213-3.318 4.232-6.982 4.802-.094 2.086-5.117 5.527 1.345 1.083 4.057-.957 5.212-.126 4.265 2.716 5.665 7.98 7.641 4.519 1.829 11.557-1.022 2.206-2.26.269-1.237 2.046 1.077 1.021h2.367l4.627-4.896-.269-7.036.978-7.09 12.205-3.241 3.444 4.949 8.555 6.027-.162 2.099-3.705 5.058-1.782.108-.915 1.937 1.614.699 4.628-.322 5.219-10.491-1.184-2.207-2.906-2.853 2.529-8.34.431-3.658.646 8.123 3.39 9.257 15.443 9.953 8.125-.03-5.008-5.921zM26.732 53.37l-6.089-7.676-4.574-2.743-7.424.001 7.586-2.906 7.021 2.609 5.327 5.381 3.605 2.332.821 6.205-6.273-3.203zm24.554-.249l-11.81 2.462 1.001-4.427 11.211 1.456-.402.509zm28.22 14.36l3.903-1.26 1.563-3.091 3.889 5.854 3.695 4.195-5.643-.484-7.407-5.214z"></path></g><!----></svg>